# xmcd CD database file
#
# Track frame offsets:
#	150
#	10020
#	21692
#	33912
#	47970
#	61150
#	74510
#	88512
#	100040
#	112200
#	125265
#	137875
#	150335
#	160857
#	175400
#	187492
#	200150
#	214297
#	227430
#	243010
#
# Disc length: 3378 seconds
#
# Revision: 1
# Processed by: cddbd v1.4PL0 Copyright (c) Steve Scherf et al.
# Submitted via: CDex 1.40Release
#
DISCID=1d0d3014
DTITLE=Merle Haggard - 20 Greatest Hits
DYEAR=2002
DGENRE=Country
TTITLE0=Mama Tried
TTITLE1=Workin' Man Blues
TTITLE2=Silver Wings
TTITLE3=Always Wanting You
TTITLE4=Okie from Muskogee
TTITLE5=Living with the Shades Pulled Down
TTITLE6=Branded Man
TTITLE7=Carolyn
TTITLE8=If We Make It Through December
TTITLE9=The Fightin' Side of Me
TTITLE10=The Bottle Let Me Down
TTITLE11=House of Memories
TTITLE12=Today I Started Loving You Again
TTITLE13=Daddy Frank (The Guitar Man)
TTITLE14=Honky Tonk Night Time Man
TTITLE15=Sing Me Back Home
TTITLE16=What Have You Got Planned Tonight, Diana
TTITLE17=I'm a Lonesome Fugitive
TTITLE18=Hungry Eyes
TTITLE19=Old Man from the Mountain
EXTD=YEAR: 2002 ID3G: 2
EXTT0=
EXTT1=
EXTT2=
EXTT3=
EXTT4=
EXTT5=
EXTT6=
EXTT7=
EXTT8=
EXTT9=
EXTT10=
EXTT11=
EXTT12=
EXTT13=
EXTT14=
EXTT15=
EXTT16=
EXTT17=
EXTT18=
EXTT19=
PLAYORDER=
